# xmcd CD database file
#
# Track frame offsets:
#	150
#	14959
#	29677
#	51360
#	70012
#	87252
#	107302
#	132630
#	150807
#	165555
#	180242
#	201897
#	220507
#	237715
#	257712
#	283020
#
# Disc length: 4016 seconds
#
# Revision: 3
# Processed by: cddbd v1.5.1PL2 Copyright (c) Steve Scherf et al.
# Submitted via: CDex 1.51
#
DISCID=df0fae10
DTITLE=Rogers, Kenny - Sound Choice Hits of Kenny Rogers Vol 1
DYEAR=1900
DGENRE=Country
TTITLE0=Ruby, Don't Take Your Love To Town
TTITLE1=If You Want To Find Love
TTITLE2=Through The Years
TTITLE3=Lady
TTITLE4=Gambler, The
TTITLE5=She Believs In Me
TTITLE6=I Prefer The Moonlight
TTITLE7=Love Will Turn You Around
TTITLE8=Ruby, Don't Take Your Love To Town (Vocals)
TTITLE9=If You Want To Find Love (Vocals)
TTITLE10=Through The Years (Vocals)
TTITLE11=Lady (Vocals)
TTITLE12=Gambler, The (Vocals)
TTITLE13=She Believs In Me (Vocals)
TTITLE14=I Prefer The Moonlight (Vocals)
TTITLE15=Love Will Turn You Around (Vocals)
EXTD=
EXTT0=
EXTT1=
EXTT2=
EXTT3=
EXTT4=
EXTT5=
EXTT6=
EXTT7=
EXTT8=
EXTT9=
EXTT10=
EXTT11=
EXTT12=
EXTT13=
EXTT14=
EXTT15=
PLAYORDER=
